<?xml version="1.0" encoding="UTF-8" standalone="no"?>
<svg
   width="209.61774pt"
   height="63.402344pt"
   viewBox="0 0 209.61773 63.402341"
   version="1.2"
   id="svg439"
   xmlns="http://www.w3.org/2000/svg"
   xmlns:svg="http://www.w3.org/2000/svg">
  <defs
     id="defs443" />
  <g
     id="surface153272"
     transform="translate(-159.91797,-192.52344)">
    <path
       style="fill:#eb611e;fill-opacity:1;fill-rule:nonzero;stroke:none"
       d="m 178.94141,235.49219 c 0,-0.23828 -0.21094,-0.38672 -0.21094,-0.38672 -1.95703,-1.53125 -6.89453,-3.83985 -14.71485,-6.88281 -0.0391,-0.0195 -4.09765,-1.6211 -4.09765,-5.91016 0,-3.70703 7.20703,-8.09766 22.02344,-13.42578 0.88281,-0.29688 1.70703,-0.4375 2.42187,-0.4375 2.67969,0 3.28516,2.0039 3.28516,2.02734 0.0195,0.0547 0.64453,1.79297 -0.51172,3.45313 -1.05469,1.51562 -3.67188,2.57031 -7.64063,4.16015 l -8.26172,3.98047 c -0.98046,0.48047 -0.13281,0.9961 -0.13281,0.9961 10.29297,3.35546 15.24219,7.33984 15.32031,12.17578 0.0391,3.98437 -2.0039,6.16406 -2.22265,6.30468 -0.24219,0.20704 -0.63281,0.61329 -0.72266,0.69532 -0.88672,0.85937 -1.61328,1.41406 -2.46484,2.12109 -1.69922,1.4375 -3.1875,2.46875 -4.71875,3.32031 -1.44141,0.78516 -2.86719,1.19922 -4.36328,1.63282 l -0.28125,0.0781 c -2.51563,0.72266 -9.46094,1.02344 -10.2461,-2.47266 -0.38281,-1.73046 0.89063,-2.50781 2.33594,-2.98046 1.59375,-0.55079 3.08594,-1.09375 4.64844,-1.67969 0.74609,-0.28125 1.39062,-0.64844 2.0625,-0.9375 2.46484,-1.02735 3.55859,-1.62891 5.07812,-2.73047 3.20313,-2.34375 3.41407,-3.10156 3.41407,-3.10156"
       id="path368" />
    <path
       style="fill:#eb611e;fill-opacity:1;fill-rule:nonzero;stroke:none"
       d="m 194.21875,242.10547 h 0.41797 l 7.13672,-2.11719 v -0.40234 c -1.65235,-4.80078 -2.89844,-5.96094 -3.58985,-5.96094 h -0.0664 z m 18.95703,0.33203 c -0.082,0.96094 -0.37891,1.95312 -2.03906,2.05859 l 1.1875,6.27344 c 0.0156,0.004 0.0156,0.0195 0.0156,0.043 v 1.11719 c 0,0.0273 -0.0156,0.0508 -0.0156,0.0859 -0.23047,0.75391 -1.11719,1.375 -2.71875,1.89454 -0.0156,0.0234 -0.0469,0.0234 -0.0742,0.0234 h -0.0117 c -1.62109,-0.0625 -3.32812,-2.70312 -5.07422,-7.875 -3.17578,0.45313 -5.47656,0.95313 -7.32031,1.59766 0,0 -5.19531,1.58594 -5.65234,1.78125 0,0 0.0703,0.58594 0.0117,0.94531 0,1.59375 -0.90625,2.35938 -2.76171,2.35938 h -1.19532 c -1.10156,0 -2.15234,-1.96875 -3.125,-5.875 -0.0195,-0.0352 -0.0234,-0.0664 0,-0.0898 0.0586,-0.49609 0.97266,-1.39843 2.75,-2.6875 h 0.004 c 4.26172,-13.30078 8.10937,-20.04687 11.39453,-20.04687 h 0.38672 c 3.10156,0 6.01562,4.08203 9.45703,14.23047 l 1.03516,-0.28125 c 0.36718,-0.0898 0.73828,-0.12891 1.09375,-0.12891 1.125,0 2.28125,0.49609 2.28125,1.60156 0.33203,1.9375 0.37109,2.97266 0.37109,2.97266"
       id="path370" />
    <path
       style="fill:#eb611e;fill-opacity:1;fill-rule:nonzero;stroke:none"
       d="m 273.51562,242.03125 h 0.42188 l 7.16406,-2.10938 v -0.41015 c -1.67187,-4.79688 -2.90234,-5.95313 -3.61328,-5.95313 h -0.0703 z m 18.97266,0.35156 c -0.10156,0.95313 -0.39062,1.9336 -2.03516,2.04297 l 1.19141,6.25781 c 0,0.0234 0.0117,0.0391 0.0117,0.0508 v 1.11719 c 0,0.0352 -0.0117,0.0547 -0.0195,0.0781 -0.22656,0.76172 -1.11719,1.38672 -2.71094,1.90625 -0.0391,0.0156 -0.0664,0.0195 -0.0859,0.0195 -1.61328,-0.0547 -3.33984,-2.69922 -5.0664,-7.875 -3.19532,0.46484 -5.48438,0.94922 -7.33985,1.59765 0,0 -5.17968,1.59375 -5.63281,1.78516 0,0 0.0508,0.58984 0,0.96094 0,1.57422 -0.90625,2.35156 -2.76562,2.35156 h -1.19141 c -1.09766,0 -2.16406,-1.98437 -3.12891,-5.875 -0.004,-0.0352 -0.0117,-0.0664 -0.004,-0.10156 0.0625,-0.48438 0.97656,-1.39063 2.74609,-2.6875 4.28125,-13.29688 8.11328,-20.03516 11.40625,-20.03516 H 278.25 c 3.09766,0 6.01562,4.06641 9.44922,14.22656 l 1.03125,-0.27734 c 0.38281,-0.0898 0.73437,-0.13672 1.11328,-0.13672 1.11328,0 2.27344,0.49219 2.27344,1.60938 0.33984,1.92187 0.37109,2.98437 0.37109,2.98437"
       id="path372" />
    <path
       style="fill:#eb611e;fill-opacity:1;fill-rule:nonzero;stroke:none"
       d="m 222.97656,245.58203 c -0.74609,2.97266 -1.11328,4.05078 -2.375,4.45703 h -1.28906 c -2.69531,0 -4.01172,-1.9414 -4.01172,-5.91406 v -0.98047 c 0,-10.1875 1.53516,-17.47266 5.25781,-25.16406 0.0312,-0.0703 0.0859,-0.11719 0.16407,-0.13672 l 2.07421,-0.47266 h 0.0703 c 3.375,0.0312 5.88281,5.11328 7.89843,15.98047 0,0 0.0703,0.28906 0.1836,0.28906 0.1289,0 0.22656,-0.17187 0.25781,-0.28906 2.35547,-7.77344 4.96484,-11.55859 7.96484,-11.55859 4.3125,0 6.76172,5.67187 7.92579,18.39062 v 4.92578 c 0,1.67579 -0.42969,2.65235 -1.29688,2.92188 -0.0156,0.0156 -0.0391,0.0156 -0.0742,0.0156 h -1.26172 c -2.17968,0 -3.52343,-1.96875 -3.99609,-5.85546 -0.87109,-5.94532 -1.59766,-8.83985 -2.19141,-8.83985 -2.47656,8.57422 -4.94531,12.74219 -7.51172,12.74219 -2.77343,0 -5.23437,-4.32813 -7.48046,-13.25 0,0 -0.0664,-0.23828 -0.22657,-0.23828 -0.16797,0 -0.22265,0.15625 -0.22265,0.23828 l -0.44141,8.34375 0.45313,2.23047 c 0,0 0.4414,0.88281 0.1289,2.16406"
       id="path374" />
    <path
       style="fill:#eb611e;fill-opacity:1;fill-rule:nonzero;stroke:none"
       d="m 313.91797,244.05078 h -0.46875 c -0.0391,0 -0.082,-0.0117 -0.1211,-0.0391 -2.1914,-1.20703 -6.375,-5.88672 -12.47265,-13.88281 0.57031,0.73828 -0.20313,3.88281 -0.36328,4.79687 -0.21485,1.35156 -0.0234,2.96094 -0.4961,4.28516 -0.35547,0.96093 -1.17968,2.89453 -2.34765,2.96093 -5.7461,0.33204 -4.07032,-8.18359 -3.47657,-11.25781 0.61329,-3.24609 1.0625,-6.51172 1.48438,-9.78906 0.008,-0.0391 0.0195,-0.0664 0.0312,-0.0977 1.10156,-1.98047 2.5,-2.98437 4.125,-2.98437 h 0.92578 c 0.0742,0 0.14844,0.0273 0.19922,0.10547 l 11.92969,15.63672 v -3.65625 c 0,-13.42579 1.54297,-19.95704 4.69531,-19.95704 h 0.92187 c 0.0664,0 0.14844,0.0391 0.19141,0.0937 l 1.42188,1.63672 c 0.0508,0.043 0.0664,0.10938 0.0664,0.17188 v 16.24219 c 0,10.44921 -2.11328,15.73437 -6.24609,15.73437"
       id="path376" />
    <path
       style="fill:#eb611e;fill-opacity:1;fill-rule:nonzero;stroke:none"
       d="m 329.11719,239.12109 c 1.875,3.01172 5.0664,4.46875 9.44922,4.3125 l 2.70312,-0.082 c 0.0586,-0.008 0.11719,0.004 0.15234,0.0312 l 1.32813,0.82422 0.47656,-0.0234 1.72266,-4.23437 -0.45313,0.0117 -6.40234,1.16406 c -0.0625,0.0117 -0.0977,0 -0.15234,-0.0156 -1.35547,-0.54687 -2.125,-1.13281 -2.29688,-1.73437 -0.0195,-0.0195 -0.0195,-0.0391 -0.0195,-0.0586 l -0.0508,-1.73829 c 0,-0.0469 0.008,-0.0977 0.0195,-0.13671 1.40625,-2.48438 6.33594,-3.86719 14.64062,-4.15235 0.0312,0 0.0586,0 0.0899,0.0117 1.26953,0.36328 2.17969,1.07422 2.79687,2.14844 0.0352,0.043 0.0391,0.082 0.0391,0.11719 l 0.0508,1.71875 c 0,0.043 -0.0117,0.082 -0.0234,0.1289 l -6.03906,13.16016 c 0.0664,1.68359 -0.12891,2.98828 -0.5586,3.83984 -0.42968,0.87891 -1.10937,1.32813 -2.05078,1.36328 l -1.32031,0.0391 h -0.008 c -0.043,0 -0.10157,-0.008 -0.13282,-0.0312 -1.54687,-0.88672 -2.3125,-2.0586 -2.375,-3.59766 0,-0.0117 0.004,-0.0352 0.004,-0.0508 l 0.78516,-4.61719 -5.98047,1.61328 c -0.0117,0.004 -0.043,0.004 -0.0586,0.004 -7.05859,0.23437 -11.6914,-3.21485 -13.75781,-10.20313 0,-0.0195 0,-0.0391 -0.0117,-0.0703 l -0.0234,-0.4375 c -0.21094,-6.18359 4.90234,-12.28516 15.16796,-18.14453 0,0 2.26172,-1.37109 6.58204,-1.16016 1.65234,0.0664 3.17968,1.02735 4.60546,2.9961 0.64454,0.89062 0.12891,2.92187 0.12891,2.92187 -0.75391,1.53516 -1.27734,2.19141 -2.91797,2.25781 -0.0391,0.008 -0.375,0.0508 -0.39844,0.0508 l -3.21093,-0.63672 c 0,0 -0.34375,-0.11328 -0.91407,0.10937 -5.17578,2.0586 -8.9375,5.28516 -11.21093,9.49219 0,0 -0.87891,1.87891 -0.375,2.80859"
       id="path378" />
    <path
       style="fill:#eb611e;fill-opacity:1;fill-rule:nonzero;stroke:none"
       d="m 260.22656,255.14062 -1.32422,0.75 c -0.0391,0.0234 -0.0742,0.0352 -0.11328,0.0352 h -0.85547 c 0,0 -0.33593,-0.0547 -0.78906,-0.30469 l -1.37891,-1.1875 c -0.58593,-0.65625 -0.53515,-1.78515 -0.53515,-1.78515 l 0.25781,-8.44141 c -0.008,-1.45312 0.34766,-3.40625 0.34766,-3.40625 l 1.50781,-7.73437 -0.0273,-0.0117 c -9.9375,-5.70703 -13.94532,-12.00782 -13.94532,-16.66797 v -0.10547 c 0,-0.0469 0.0195,-0.0898 0.043,-0.13672 l 0.0664,-0.0859 c 0.73047,-1.24218 1.86328,-1.87109 3.33984,-1.87109 h 0.14844 c 0.0625,0 0.12109,0.0273 0.17187,0.0742 l 0.10157,0.0859 c 0.008,0.004 0.0117,0.0234 0.0234,0.0234 l 10.79297,12.17969 0.91016,0.49609 c 0.17187,-0.625 0.45312,-1.29296 0.73437,-2.0039 0.1836,-0.40235 0.34375,-0.82422 0.50391,-1.25781 0.0898,-0.8711 1.00391,-2.29297 1.11328,-2.46875 0.39453,-0.82032 0.79688,-1.71094 1.2461,-2.65625 1.39453,-2.9336 2.77734,-5.89063 4.24609,-8.78907 0.25781,-0.48047 0.48828,-0.98828 0.83984,-1.42187 0.38282,-0.45313 0.90625,-0.81641 1.38282,-1.17188 0.42578,-0.3125 0.78515,-0.67968 1.2539,-0.90625 0.4336,-0.20312 0.83985,-0.1914 1.29297,-0.17578 0.66797,0.0234 1.33984,0 2.00391,0 1.9375,0 3.22656,0.64844 3.83593,1.91406 0.0156,0.0234 0.0274,0.0391 0.0391,0.0586 l 0.008,0.16406 c 0,0.0273 0.0195,0.0391 0.0195,0.0586 v 1.01172 c 0,0.0898 -0.0391,0.17578 -0.13281,0.22657 l -0.19141,0.11328 c -2.61719,1.51172 -8.09375,10.6914 -8.29297,12.28515 0,0.0234 -0.008,0.0391 -0.008,0.043 -4.18359,7.96875 -7.36719,21.35156 -8.10156,31.89844 0,0 -0.1211,0.72656 -0.53516,1.17187"
       id="path380" />
    <path
       style="fill:#eb611e;fill-opacity:1;fill-rule:nonzero;stroke:none"
       d="m 353.23828,192.52344 c -1.26172,0 -2.34766,0.35547 -2.34766,0.35547 -4.22265,1.28125 -7.35156,3.95312 -7.35156,3.95312 -2.80078,2.25391 -4.90625,5.01953 -5.91797,7.78906 -1.05859,2.84375 -0.90625,5.45313 0.46094,7.33985 1.24609,1.72656 3.375,2.67578 6.03516,2.80468 2.9414,0.14063 3.3164,-2.13281 3.3164,-2.13281 0.5625,-1.93359 -1.08984,-3.61328 -4.90234,-5 0,0 -1.01172,-0.33594 -1.01172,-1.42578 0,-0.33984 0.15625,-1.02344 0.80469,-1.35156 0.6289,-0.31641 1.1875,-0.0937 1.1875,-0.0937 3.24609,1.11719 5.78906,3.03125 7.15625,5.40625 l 0.67578,1.17187 v -10.36328 c 0,-1.03515 0.85156,-1.86719 1.89453,-1.86719 1.01953,0 1.86328,0.83204 1.86328,1.86719 v 10.36328 l 0.67969,-1.17187 c 1.37109,-2.375 3.91406,-4.28906 7.16016,-5.40625 0,0 0.55859,-0.22266 1.19531,0.0937 0.63672,0.32812 0.79687,1.01172 0.79687,1.35156 0,1.08984 -1.0039,1.42578 -1.0039,1.42578 -3.82422,1.38672 -5.46485,3.06641 -4.91797,5 0,0 0.39844,2.27344 3.32422,2.13281 2.65625,-0.1289 4.79687,-1.07812 6.02734,-2.80468 1.37891,-1.88672 1.54297,-4.4961 0.48438,-7.33985 -1.05469,-2.76953 -3.14063,-5.53515 -5.94532,-7.78906 0,0 -3.11718,-2.66406 -7.33984,-3.94531 0,0 -1.13281,-0.36328 -2.32422,-0.36328"
       id="path382" />
  </g>
</svg>
